HIERARCHY
ROOT mixamorig:Hips
{
	OFFSET 0.00 0.00 0.00
	CHANNELS 6 Xposition Yposition Zposition Zrotation Yrotation Xrotation
	JOINT mixamorig:Spine
	{
		OFFSET	0.0125	10.4452	-0.9963
		CHANNELS 3 Zrotation Yrotation Xrotation
		JOINT mixamorig:Spine1
		{
			OFFSET	0.0145	12.1861	-1.1623
			CHANNELS 3 Zrotation Yrotation Xrotation
			JOINT mixamorig:Spine2
			{
				OFFSET	0.0166	13.9270	-1.3284
				CHANNELS 3 Zrotation Yrotation Xrotation
				JOINT mixamorig:Neck
				{
					OFFSET	0.0187	15.6679	-1.4944
					CHANNELS 3 Zrotation Yrotation Xrotation
					JOINT mixamorig:Head
					{
						OFFSET	-0.0000	7.0878	0.8887
						CHANNELS 3 Zrotation Yrotation Xrotation
						End Site
						{
							OFFSET -0.0000 21.3244 2.6737
						}
					}
				}
				JOINT mixamorig:LeftShoulder
				{
					OFFSET	6.2331	12.5732	-1.4620
					CHANNELS 3 Zrotation Yrotation Xrotation
					JOINT mixamorig:LeftArm
					{
						OFFSET	12.4288	-6.1895	0.0647
						CHANNELS 3 Zrotation Yrotation Xrotation
						JOINT mixamorig:LeftForeArm
						{
							OFFSET	12.5822	-17.6989	-0.0651
							CHANNELS 3 Zrotation Yrotation Xrotation
							JOINT mixamorig:LeftHand
							{
								OFFSET	10.9147	-21.0687	11.6035
								CHANNELS 3 Zrotation Yrotation Xrotation
								JOINT mixamorig:LeftHandThumb1
								{
									OFFSET	-1.7358	-3.6666	2.6651
									CHANNELS 3 Zrotation Yrotation Xrotation
									JOINT mixamorig:LeftHandThumb2
									{
										OFFSET	-1.3886	-2.9333	2.1321
										CHANNELS 3 Zrotation Yrotation Xrotation
										JOINT mixamorig:LeftHandThumb3
										{
											OFFSET	-1.7918	-3.3945	1.6896
											CHANNELS 3 Zrotation Yrotation Xrotation
											End Site
											{
												OFFSET -1.1716 -2.6948 1.2270
											}
										}
									}
								}
								JOINT mixamorig:LeftHandIndex1
								{
									OFFSET	1.2042	-11.6606	7.5887
									CHANNELS 3 Zrotation Yrotation Xrotation
									JOINT mixamorig:LeftHandIndex2
									{
										OFFSET	-0.0885	-2.2672	1.0042
										CHANNELS 3 Zrotation Yrotation Xrotation
										JOINT mixamorig:LeftHandIndex3
										{
											OFFSET	-0.3002	-1.9399	0.5096
											CHANNELS 3 Zrotation Yrotation Xrotation
											End Site
											{
												OFFSET -0.2176 -2.6233 0.6157
											}
										}
									}
								}
								JOINT mixamorig:LeftHandMiddle1
								{
									OFFSET	3.0635	-12.2364	5.5160
									CHANNELS 3 Zrotation Yrotation Xrotation
									JOINT mixamorig:LeftHandMiddle2
									{
										OFFSET	0.4236	-2.6124	0.6959
										CHANNELS 3 Zrotation Yrotation Xrotation
										JOINT mixamorig:LeftHandMiddle3
										{
											OFFSET	-0.0346	-2.2988	0.2871
											CHANNELS 3 Zrotation Yrotation Xrotation
											End Site
											{
												OFFSET 0.2796 -2.9102 0.5104
											}
										}
									}
								}
								JOINT mixamorig:LeftHandRing1
								{
									OFFSET	4.3250	-12.3373	2.7720
									CHANNELS 3 Zrotation Yrotation Xrotation
									JOINT mixamorig:LeftHandRing2
									{
										OFFSET	0.0343	-2.6042	-0.1448
										CHANNELS 3 Zrotation Yrotation Xrotation
										JOINT mixamorig:LeftHandRing3
										{
											OFFSET	-0.4080	-2.1150	-0.2682
											CHANNELS 3 Zrotation Yrotation Xrotation
											End Site
											{
												OFFSET -0.1807 -2.8052 -0.0224
											}
										}
									}
								}
								JOINT mixamorig:LeftHandPinky1
								{
									OFFSET	4.5316	-12.9281	-0.0800
									CHANNELS 3 Zrotation Yrotation Xrotation
									JOINT mixamorig:LeftHandPinky2
									{
										OFFSET	-0.2254	-1.6990	-0.6318
										CHANNELS 3 Zrotation Yrotation Xrotation
										JOINT mixamorig:LeftHandPinky3
										{
											OFFSET	-0.4223	-1.3628	-0.4724
											CHANNELS 3 Zrotation Yrotation Xrotation
											End Site
											{
												OFFSET -0.7253 -1.5757 -0.7080
											}
										}
									}
								}
							}
						}
					}
				}
				JOINT mixamorig:RightShoulder
				{
					OFFSET	-6.1994	12.5731	-1.5268
					CHANNELS 3 Zrotation Yrotation Xrotation
					JOINT mixamorig:RightArm
					{
						OFFSET	-12.4361	-6.1894	-0.0647
						CHANNELS 3 Zrotation Yrotation Xrotation
						JOINT mixamorig:RightForeArm
						{
							OFFSET	-12.5822	-17.6989	0.1601
							CHANNELS 3 Zrotation Yrotation Xrotation
							JOINT mixamorig:RightHand
							{
								OFFSET	-10.9147	-21.0687	11.5252
								CHANNELS 3 Zrotation Yrotation Xrotation
								JOINT mixamorig:RightHandThumb1
								{
									OFFSET	1.8326	-3.8313	2.8102
									CHANNELS 3 Zrotation Yrotation Xrotation
									JOINT mixamorig:RightHandThumb2
									{
										OFFSET	1.4660	-3.0650	2.2481
										CHANNELS 3 Zrotation Yrotation Xrotation
										JOINT mixamorig:RightHandThumb3
										{
											OFFSET	1.7022	-3.2799	1.5927
											CHANNELS 3 Zrotation Yrotation Xrotation
											End Site
											{
												OFFSET 0.9222 -2.4964 1.2260
											}
										}
									}
								}
								JOINT mixamorig:RightHandIndex1
								{
									OFFSET	-1.2113	-11.6910	7.5909
									CHANNELS 3 Zrotation Yrotation Xrotation
									JOINT mixamorig:RightHandIndex2
									{
										OFFSET	0.1340	-2.2478	1.0804
										CHANNELS 3 Zrotation Yrotation Xrotation
										JOINT mixamorig:RightHandIndex3
										{
											OFFSET	0.2833	-1.9852	0.4907
											CHANNELS 3 Zrotation Yrotation Xrotation
											End Site
											{
												OFFSET 0.2347 -2.6272 0.4660
											}
										}
									}
								}
								JOINT mixamorig:RightHandMiddle1
								{
									OFFSET	-3.1183	-12.4952	5.5338
									CHANNELS 3 Zrotation Yrotation Xrotation
									JOINT mixamorig:RightHandMiddle2
									{
										OFFSET	-0.3657	-2.5472	0.7803
										CHANNELS 3 Zrotation Yrotation Xrotation
										JOINT mixamorig:RightHandMiddle3
										{
											OFFSET	0.0506	-2.2906	0.2557
											CHANNELS 3 Zrotation Yrotation Xrotation
											End Site
											{
												OFFSET -0.1704 -2.9156 0.4516
											}
										}
									}
								}
								JOINT mixamorig:RightHandRing1
								{
									OFFSET	-4.3615	-12.5986	2.8743
									CHANNELS 3 Zrotation Yrotation Xrotation
									JOINT mixamorig:RightHandRing2
									{
										OFFSET	0.0394	-2.4666	-0.2159
										CHANNELS 3 Zrotation Yrotation Xrotation
										JOINT mixamorig:RightHandRing3
										{
											OFFSET	0.4323	-2.1153	-0.2184
											CHANNELS 3 Zrotation Yrotation Xrotation
											End Site
											{
												OFFSET 0.0751 -2.6586 -0.0626
											}
										}
									}
								}
								JOINT mixamorig:RightHandPinky1
								{
									OFFSET	-4.4132	-11.5032	0.4194
									CHANNELS 3 Zrotation Yrotation Xrotation
									JOINT mixamorig:RightHandPinky2
									{
										OFFSET	-0.1665	-2.1237	-0.7208
										CHANNELS 3 Zrotation Yrotation Xrotation
										JOINT mixamorig:RightHandPinky3
										{
											OFFSET	0.5102	-1.7553	-0.6317
											CHANNELS 3 Zrotation Yrotation Xrotation
											End Site
											{
												OFFSET 0.3407 -2.2265 -0.9448
											}
										}
									}
								}
							}
						}
					}
				}
			}
		}
	}
	JOINT mixamorig:LeftUpLeg
	{
		OFFSET	10.1286	-5.8029	-0.5827
		CHANNELS 3 Zrotation Yrotation Xrotation
		JOINT mixamorig:LeftLeg
		{
			OFFSET	4.2353	-40.9156	0.1368
			CHANNELS 3 Zrotation Yrotation Xrotation
			JOINT mixamorig:LeftFoot
			{
				OFFSET	2.7471	-36.6710	-5.9597
				CHANNELS 3 Zrotation Yrotation Xrotation
				JOINT mixamorig:LeftToeBase
				{
					OFFSET	2.4527	-12.3426	15.4410
					CHANNELS 3 Zrotation Yrotation Xrotation
					End Site
					{
						OFFSET 1.4532 0.2140 7.5769
					}
				}
			}
		}
	}
	JOINT mixamorig:RightUpLeg
	{
		OFFSET	-10.0150	-5.8029	-0.7207
		CHANNELS 3 Zrotation Yrotation Xrotation
		JOINT mixamorig:RightLeg
		{
			OFFSET	-4.2353	-40.9157	0.2580
			CHANNELS 3 Zrotation Yrotation Xrotation
			JOINT mixamorig:RightFoot
			{
				OFFSET	-2.7471	-36.6708	-6.0475
				CHANNELS 3 Zrotation Yrotation Xrotation
				JOINT mixamorig:RightToeBase
				{
					OFFSET	-2.4527	-12.3428	15.3607
					CHANNELS 3 Zrotation Yrotation Xrotation
					End Site
					{
						OFFSET -1.4532 0.2139 7.5074
					}
				}
			}
		}
	}
}
MOTION
Frames: 4
Frame Time: 0.0333333
9.2528 89.9034 6.3705 -4.0016 8.1752 1.7626 -3.6098 3.0883 1.4560 -5.3312 5.7324 3.1736 -5.3408 5.6959 3.2142 -7.1679 -3.4714 -2.2021 10.5036 -28.3156 1.7559 6.2986 -3.4123 0.7686 7.4836 -18.7740 -19.3674 35.6156 -27.7883 -92.1478 18.2861 25.3270 -10.1529 -6.1159 0.5732 3.7459 6.8396 4.8650 -0.5807 3.9284 -0.0648 11.0965 -35.4831 -1.5756 32.1446 -53.7704 -4.2463 36.4566 -43.0948 -3.0582 27.8769 -53.2508 0.3557 27.4137 -45.3304 3.4684 25.7428 -39.3316 2.9719 22.7409 -49.4368 -1.8185 13.3732 -38.3621 9.4964 22.9068 -42.7058 9.3213 25.0069 -38.4163 -4.4564 -1.6469 -46.3062 19.3287 23.6276 -29.2937 9.6045 14.4521 -24.1070 1.2074 -0.1087 -17.9123 9.8329 -56.7760 -21.4164 24.2508 -60.5083 -40.1186 -3.3799 -0.7801 2.7727 -7.1627 9.0102 -6.8985 -4.7988 -0.3280 3.9510 1.6160 -0.2024 30.1446 0.0814 28.0679 23.8604 6.8336 13.2048 30.2812 3.2334 19.9171 33.9964 1.9332 18.8330 29.3503 0.4766 17.6880 35.9430 -3.6272 24.9047 24.2560 4.1197 -0.2936 14.9780 -1.7983 16.2305 36.4524 -6.8298 21.4325 33.6526 6.2790 -5.4802 7.1511 -1.9926 14.5727 31.7036 -12.9223 9.6678 2.6051 -2.0515 -36.2626 2.9901 -10.1751 40.3799 -4.5707 -17.3323 -7.2578 -0.0000 0.0000 -1.1400 1.7707 -14.6740 -2.2575 -12.5959 -7.4877 43.0204 12.8481 -8.2682 -2.7288 10.3867 2.9160 -23.5703 
9.8099 88.5751 6.6307 -4.4756 6.4861 1.6593 -4.0805 3.3203 2.2968 -5.8824 6.1679 4.5341 -5.8736 6.1278 4.5919 -7.0572 -3.5846 -1.7771 13.5399 -28.4440 -2.7729 5.3147 -5.3747 0.9173 1.5478 -10.5769 -8.0827 39.2567 -27.5423 -99.9811 16.7824 27.8846 -16.8969 -6.4150 0.5305 3.8705 6.8536 4.8693 -0.5426 4.6164 -0.2683 12.7998 -37.7088 -1.2562 34.8744 -58.5194 -2.7204 40.0548 -45.8219 -2.4518 29.8950 -55.3237 1.2827 29.6350 -46.9687 4.0178 26.6673 -41.4196 3.5943 23.9205 -52.0599 -0.9719 15.0876 -40.5768 10.4846 23.8848 -43.7677 9.7794 25.4722 -40.1471 -4.1399 -0.4917 -47.3567 19.9833 23.9368 -30.6286 10.2239 15.0435 -19.8415 3.3079 -0.2060 -11.7028 5.5322 -47.9784 -33.3287 27.7125 -87.2798 -39.9703 1.1247 -0.7151 2.5190 -7.2729 8.6193 -6.8985 -4.7988 -0.3280 3.9335 1.6134 -0.1739 31.3634 -0.0450 26.6383 21.6173 6.5219 11.1709 29.7170 3.2881 19.4280 34.5583 2.0702 17.8413 25.0117 1.1502 14.4895 35.6798 -3.5400 24.7236 23.6880 4.1625 -0.5795 9.4001 -0.5592 12.5449 35.2948 -6.3803 20.7374 33.2439 6.3367 -5.2079 1.1923 0.6136 10.9421 31.0265 -12.5767 9.3670 3.4087 -2.8622 -37.9395 1.9786 -9.8432 45.8301 -3.5135 -14.8239 -10.7697 0.0000 0.0000 -1.1885 0.2989 -13.9058 -4.1343 -13.5322 -6.4346 47.2239 11.4841 -1.9765 -1.2475 10.4911 3.1718 -27.4052 
10.5291 87.1193 6.8027 -4.9754 2.7046 1.5647 -4.5807 3.6807 3.0448 -6.4561 6.8687 5.6939 -6.4234 6.8261 5.7750 -6.4789 -3.8012 -1.6129 16.5442 -28.1322 -7.5092 4.4257 -7.1543 1.0889 -4.0271 0.6181 2.1328 38.1808 -27.6613 -97.6591 13.4797 27.7769 -21.9761 -6.5161 0.5228 3.8883 6.9226 4.8904 -0.3551 5.0398 -0.4101 13.8383 -39.8481 -0.8706 36.6751 -61.6499 -1.5315 42.3942 -48.6340 -1.7202 31.9609 -56.7961 1.9742 31.2261 -49.3580 4.8709 27.9954 -43.2442 4.1761 24.9381 -55.5691 0.2901 17.2584 -42.8132 11.5243 24.8397 -44.5481 10.1220 25.8096 -41.9994 -3.7627 0.7441 -48.9432 20.9808 24.3814 -31.2826 10.5330 15.3288 -16.2887 3.1558 0.0225 -6.6640 4.3725 -42.9196 -41.1604 27.2292 -104.1557 -38.4235 2.4282 -1.5875 2.7550 -7.1930 8.9026 -6.8985 -4.7988 -0.3279 4.0483 1.6302 -0.3610 32.0806 -0.1170 25.9884 18.8662 6.0285 8.6800 28.9953 3.3509 18.8022 34.9976 2.1383 17.3113 20.8212 1.5662 11.3822 35.2944 -3.4139 24.4580 23.0891 4.2157 -0.2303 4.4353 0.2285 9.2158 34.4130 -6.0485 20.2041 32.8394 6.3891 -4.7609 -2.6603 2.0598 8.5117 30.6168 -12.3694 9.1833 4.1389 -2.5572 -39.1293 1.0135 -9.4325 51.4232 -2.8381 -11.3623 -14.6382 -0.0000 -0.0000 -1.0891 -1.6172 -13.8509 -6.1671 -11.9399 -3.7535 51.1192 11.0025 -0.2595 -2.4534 10.3505 3.5911 -27.8359 
11.3804 85.6729 6.8635 -5.5045 -2.6122 1.4148 -5.0406 3.8768 3.6273 -6.9731 7.2622 6.5097 -6.9131 7.2192 6.6150 -5.7160 -3.9118 -1.6825 18.1124 -27.0079 -11.0607 4.6546 -7.5417 1.0722 -9.6077 12.5092 7.7073 30.9739 -27.4606 -82.1559 5.9450 24.1392 -26.5713 -6.3904 0.5761 3.7002 6.9398 4.8955 -0.3083 5.3342 -0.5161 14.5560 -41.9723 -0.4162 38.0162 -63.0336 -0.9589 43.4186 -50.5037 -1.1734 33.3248 -58.5690 2.7451 32.5492 -51.9556 5.8676 29.4100 -44.2591 4.5149 25.4984 -58.8084 1.5877 19.1975 -44.2762 12.2263 25.4457 -44.9144 10.2846 25.9666 -43.7528 -3.3636 1.8823 -50.4618 21.9446 24.7811 -31.4423 10.6091 15.3981 -14.2943 2.1631 0.2229 -4.2177 5.9553 -41.4745 -43.7090 26.6107 -109.7797 -38.1253 1.4650 -3.1256 3.9075 -6.8641 10.1126 -6.8985 -4.7988 -0.3279 4.2577 1.6619 -0.7035 32.2932 -0.1537 26.0902 16.0341 5.3907 6.1208 28.1958 3.4112 18.1086 35.1503 2.1124 17.3851 17.6364 1.7292 9.0136 34.9427 -3.3006 24.2153 22.4514 4.2908 0.7187 0.9148 0.6083 6.8359 33.8642 -5.8465 19.8705 32.5034 6.4314 -4.2557 -4.2691 2.6084 7.4803 30.4254 -12.2731 9.0971 4.7522 -1.4227 -39.6112 0.1071 -8.9986 56.6402 -2.7177 -7.3187 -18.5150 -0.0000 -0.0000 -0.9109 -3.5992 -14.0280 -8.1576 -10.3354 -1.4401 54.6489 10.7991 0.0825 -5.5049 7.7479 3.1339 -28.5774 
